<svg xmlns="http://www.w3.org/2000/svg" style="display:none"><symbol id="box" viewBox="0 0 612 612"><path d="M289.052 191.691l-36.224 87.974a8.636 8.636 0 0 1-7.23 5.315L60.311 301.262a8.635 8.635 0 0 0-7.877 8.826l3.768 145.442a8.64 8.64 0 0 0 6.856 8.228l218.13 45.882a77.712 77.712 0 0 0 16.173 1.665l.004-43.135V193.336c-.002-12.006-3.742-12.746-8.313-1.645zm-25.365 271.232l-81.886-13.187v-42.921h81.886v56.108zm-35.805-198.85L9.518 286.138c-6.671.674-11.532-6.18-8.69-12.252L58.973 149.6a8.636 8.636 0 0 1 6.262-4.835l239.934-44.069-70.262 158.29a8.637 8.637 0 0 1-7.025 5.087zm323.807 37.189l-185.286-16.281a8.633 8.633 0 0 1-7.23-5.315l-36.225-87.974c-4.571-11.102-8.312-10.362-8.312 1.644v274.833l.004 43.135a77.668 77.668 0 0 0 16.174-1.665l218.13-45.882a8.636 8.636 0 0 0 6.855-8.228l3.768-145.441a8.635 8.635 0 0 0-7.878-8.826zm-76.252 77.686l-10.233.283-.207 64.406c-.009 2.837-2.891 5.55-6.475 6.065l-16.771 2.412c-3.831.551-6.966-1.412-6.959-4.392l.156-67.651-11.705.324c-5.691.157-9.292-4.406-6.395-8.183l27.837-36.274c2.637-3.438 9.109-3.121 11.651.501l24.435 34.825c2.316 3.303-.613 7.552-5.334 7.684zm127.044-92.81l-218.364-22.065a8.634 8.634 0 0 1-7.025-5.088l-70.261-158.29 239.934 44.069a8.64 8.64 0 0 1 6.263 4.835l58.145 124.286c2.841 6.073-2.021 12.927-8.692 12.253z"/></symbol><symbol id="temp-icon-left-arrow" viewBox="0 0 31.494 31.494"><path d="M10.273 5.01a1.117 1.117 0 0 1 1.587 1.57l-8.047 8.047h26.554c.62 0 1.127.492 1.127 1.11 0 .62-.508 1.128-1.127 1.128H3.813l8.047 8.032c.43.444.43 1.16 0 1.587a1.112 1.112 0 0 1-1.587 0L.32 16.532a1.12 1.12 0 0 1 0-1.57l9.953-9.953z" fill="#1E201D"/></symbol><symbol id="temp-icon-right-arrow" viewBox="0 0 31.49 31.49"><path d="M21.205 5.007a1.117 1.117 0 0 0-1.587 1.57l8.047 8.048H1.11c-.618 0-1.11.493-1.11 1.112 0 .62.492 1.127 1.11 1.127h26.555l-8.047 8.032c-.43.444-.43 1.16 0 1.587.444.444 1.16.444 1.587 0l9.952-9.952a1.092 1.092 0 0 0 0-1.57l-9.952-9.95z" fill="#1E201D"/></symbol></svg>